<svg width="60" height="60" viewBox="0 0 60 60" fill="none" xmlns="http://www.w3.org/2000/svg">
<path d="M30 0.0625C37.9373 0.0708974 45.5476 3.22729 51.1602 8.83984C56.7727 14.4524 59.9291 22.0627 59.9375 30L59.9326 30.5547C59.8265 36.282 58.0794 41.8635 54.8926 46.6328C51.6031 51.5558 46.9271 55.3923 41.457 57.6582C35.9867 59.9241 29.9665 60.5174 24.1592 59.3623C18.352 58.2071 13.0178 55.3557 8.83105 51.1689C4.64429 46.9822 1.79288 41.648 0.637695 35.8408C-0.51745 30.0335 0.0758989 24.0133 2.3418 18.543C4.60771 13.0729 8.4442 8.39689 13.3672 5.10742C18.1365 1.92065 23.718 0.173481 29.4453 0.0673828L30 0.0625ZM39.7383 6.49023C35.0884 4.5642 29.9714 4.06011 25.0352 5.04199C20.099 6.02392 15.5646 8.44711 12.0059 12.0059C8.44711 15.5646 6.02392 20.099 5.04199 25.0352C4.06011 29.9714 4.5642 35.0884 6.49023 39.7383C8.41625 44.388 11.6777 48.3621 15.8623 51.1582C20.0471 53.9544 24.967 55.4473 30 55.4473C36.7466 55.4396 43.2148 52.7559 47.9854 47.9854C52.7559 43.2148 55.4396 36.7466 55.4473 30L55.4424 29.5283C55.3522 24.6601 53.867 19.9162 51.1582 15.8623C48.3621 11.6777 44.388 8.41625 39.7383 6.49023ZM30 39.293C30.9015 39.293 31.7659 39.6516 32.4033 40.2891C33.0407 40.9265 33.3994 41.7909 33.3994 42.6924C33.3994 43.3646 33.1996 44.0221 32.8262 44.5811C32.4527 45.1399 31.9218 45.5758 31.3008 45.833C30.6798 46.0902 29.9962 46.1575 29.3369 46.0264C28.6776 45.8952 28.072 45.571 27.5967 45.0957C27.1213 44.6203 26.7972 44.0148 26.666 43.3555C26.5349 42.6962 26.6022 42.0127 26.8594 41.3916C27.1166 40.7706 27.5525 40.2397 28.1113 39.8662C28.6703 39.4927 29.3277 39.293 30 39.293ZM30 13.9082C30.5955 13.9082 31.1668 14.1454 31.5879 14.5664C32.0088 14.9874 32.2451 15.5589 32.2451 16.1543V32.3076C32.2451 32.9031 32.0089 33.4745 31.5879 33.8955C31.1668 34.3166 30.5955 34.5527 30 34.5527C29.4045 34.5527 28.8332 34.3166 28.4121 33.8955C27.9911 33.4745 27.7549 32.9031 27.7549 32.3076V16.1543C27.7549 15.5589 27.9912 14.9874 28.4121 14.5664C28.8332 14.1454 29.4045 13.9082 30 13.9082Z" fill="url(#paint0_linear_130_357)" stroke="white" stroke-width="0.125"/>
<defs>
<linearGradient id="paint0_linear_130_357" x1="0" y1="30" x2="60" y2="30" gradientUnits="userSpaceOnUse">
<stop stop-color="#F8A0CC"/>
<stop offset="1" stop-color="#D296FF"/>
</linearGradient>
</defs>
</svg>
