<svg width="38" height="38" viewBox="0 0 38 38" fill="none" xmlns="http://www.w3.org/2000/svg">
<path d="M34.8333 2.92308H30.0833V1.46154C30.0833 1.07391 29.9165 0.702166 29.6196 0.428075C29.3227 0.153983 28.9199 0 28.5 0C28.0801 0 27.6773 0.153983 27.3804 0.428075C27.0835 0.702166 26.9167 1.07391 26.9167 1.46154V2.92308H11.0833V1.46154C11.0833 1.07391 10.9165 0.702166 10.6196 0.428075C10.3227 0.153983 9.91993 0 9.5 0C9.08007 0 8.67735 0.153983 8.38041 0.428075C8.08348 0.702166 7.91667 1.07391 7.91667 1.46154V2.92308H3.16667C2.32681 2.92308 1.52136 3.23104 0.927495 3.77923C0.33363 4.32741 0 5.07091 0 5.84615V35.0769C0 35.8522 0.33363 36.5957 0.927495 37.1438C1.52136 37.692 2.32681 38 3.16667 38H34.8333C35.6732 38 36.4786 37.692 37.0725 37.1438C37.6664 36.5957 38 35.8522 38 35.0769V5.84615C38 5.07091 37.6664 4.32741 37.0725 3.77923C36.4786 3.23104 35.6732 2.92308 34.8333 2.92308ZM7.91667 5.84615V7.30769C7.91667 7.69532 8.08348 8.06706 8.38041 8.34116C8.67735 8.61525 9.08007 8.76923 9.5 8.76923C9.91993 8.76923 10.3227 8.61525 10.6196 8.34116C10.9165 8.06706 11.0833 7.69532 11.0833 7.30769V5.84615H26.9167V7.30769C26.9167 7.69532 27.0835 8.06706 27.3804 8.34116C27.6773 8.61525 28.0801 8.76923 28.5 8.76923C28.9199 8.76923 29.3227 8.61525 29.6196 8.34116C29.9165 8.06706 30.0833 7.69532 30.0833 7.30769V5.84615H34.8333V11.6923H3.16667V5.84615H7.91667ZM34.8333 35.0769H3.16667V14.6154H34.8333V35.0769ZM21.375 21.1923C21.375 21.6259 21.2357 22.0498 20.9747 22.4103C20.7138 22.7708 20.3428 23.0518 19.9089 23.2177C19.4749 23.3837 18.9974 23.4271 18.5367 23.3425C18.076 23.2579 17.6528 23.0491 17.3206 22.7425C16.9885 22.4359 16.7623 22.0453 16.6706 21.62C16.579 21.1947 16.626 20.7539 16.8058 20.3533C16.9855 19.9528 17.29 19.6104 17.6805 19.3695C18.0711 19.1286 18.5303 19 19 19C19.6299 19 20.234 19.231 20.6794 19.6421C21.1248 20.0532 21.375 20.6109 21.375 21.1923ZM30.0833 21.1923C30.0833 21.6259 29.944 22.0498 29.6831 22.4103C29.4221 22.7708 29.0512 23.0518 28.6172 23.2177C28.1832 23.3837 27.7057 23.4271 27.245 23.3425C26.7843 23.2579 26.3611 23.0491 26.029 22.7425C25.6968 22.4359 25.4706 22.0453 25.379 21.62C25.2873 21.1947 25.3344 20.7539 25.5141 20.3533C25.6939 19.9528 25.9983 19.6104 26.3889 19.3695C26.7794 19.1286 27.2386 19 27.7083 19C28.3382 19 28.9423 19.231 29.3877 19.6421C29.8331 20.0532 30.0833 20.6109 30.0833 21.1923ZM12.6667 28.5C12.6667 28.9336 12.5274 29.3575 12.2664 29.718C12.0054 30.0785 11.6345 30.3595 11.2005 30.5254C10.7666 30.6914 10.289 30.7348 9.82833 30.6502C9.36762 30.5656 8.94444 30.3568 8.61229 30.0502C8.28014 29.7436 8.05394 29.353 7.9623 28.9277C7.87066 28.5024 7.91769 28.0616 8.09745 27.661C8.27721 27.2604 8.58162 26.9181 8.97219 26.6772C9.36275 26.4363 9.82194 26.3077 10.2917 26.3077C10.9216 26.3077 11.5256 26.5387 11.971 26.9498C12.4164 27.3609 12.6667 27.9186 12.6667 28.5ZM21.375 28.5C21.375 28.9336 21.2357 29.3575 20.9747 29.718C20.7138 30.0785 20.3428 30.3595 19.9089 30.5254C19.4749 30.6914 18.9974 30.7348 18.5367 30.6502C18.076 30.5656 17.6528 30.3568 17.3206 30.0502C16.9885 29.7436 16.7623 29.353 16.6706 28.9277C16.579 28.5024 16.626 28.0616 16.8058 27.661C16.9855 27.2604 17.29 26.9181 17.6805 26.6772C18.0711 26.4363 18.5303 26.3077 19 26.3077C19.6299 26.3077 20.234 26.5387 20.6794 26.9498C21.1248 27.3609 21.375 27.9186 21.375 28.5ZM30.0833 28.5C30.0833 28.9336 29.944 29.3575 29.6831 29.718C29.4221 30.0785 29.0512 30.3595 28.6172 30.5254C28.1832 30.6914 27.7057 30.7348 27.245 30.6502C26.7843 30.5656 26.3611 30.3568 26.029 30.0502C25.6968 29.7436 25.4706 29.353 25.379 28.9277C25.2873 28.5024 25.3344 28.0616 25.5141 27.661C25.6939 27.2604 25.9983 26.9181 26.3889 26.6772C26.7794 26.4363 27.2386 26.3077 27.7083 26.3077C28.3382 26.3077 28.9423 26.5387 29.3877 26.9498C29.8331 27.3609 30.0833 27.9186 30.0833 28.5Z" fill="url(#paint0_linear_115_57)"/>
<defs>
<linearGradient id="paint0_linear_115_57" x1="0" y1="19" x2="38" y2="19" gradientUnits="userSpaceOnUse">
<stop stop-color="#F8B7D9"/>
</linearGradient>
</defs>
</svg>
