<svg width="31" height="24" viewBox="0 0 31 24" fill="none" xmlns="http://www.w3.org/2000/svg">
<path d="M31 22.8C31 23.1183 30.8744 23.4235 30.6508 23.6485C30.4272 23.8736 30.1239 24 29.8077 24C29.4915 24 29.1883 23.8736 28.9647 23.6485C28.7411 23.4235 28.6155 23.1183 28.6155 22.8C28.6115 19.3005 27.2285 15.9454 24.7698 13.4709C22.3111 10.9963 18.9776 9.60437 15.5005 9.6004H4.07105L9.19037 14.7513C9.41409 14.9764 9.53977 15.2818 9.53977 15.6002C9.53977 15.9187 9.41409 16.224 9.19037 16.4492C8.96665 16.6744 8.66323 16.8009 8.34684 16.8009C8.03045 16.8009 7.72703 16.6744 7.50331 16.4492L0.349677 9.24941C0.238824 9.13797 0.150883 9.00562 0.0908829 8.85995C0.0308827 8.71427 0 8.55813 0 8.40043C0 8.24274 0.0308827 8.08659 0.0908829 7.94092C0.150883 7.79524 0.238824 7.6629 0.349677 7.55146L7.50331 0.351657C7.72703 0.126495 8.03045 -2.37247e-09 8.34684 0C8.66323 2.37247e-09 8.96665 0.126495 9.19037 0.351657C9.41409 0.57682 9.53977 0.882206 9.53977 1.20063C9.53977 1.51906 9.41409 1.82445 9.19037 2.04961L4.07105 7.20047H15.5005C19.6099 7.20483 23.5497 8.84976 26.4555 11.7743C29.3613 14.6988 30.9957 18.6641 31 22.8Z" fill="url(#paint0_linear_130_26)"/>
<defs>
<linearGradient id="paint0_linear_130_26" x1="0" y1="12" x2="31" y2="12" gradientUnits="userSpaceOnUse">
<stop stop-color="#F8A0CC"/>
<stop offset="1" stop-color="#D296FF"/>
</linearGradient>
</defs>
</svg>
