<svg width="44" height="44" viewBox="0 0 44 44" fill="none" xmlns="http://www.w3.org/2000/svg">
<path d="M23.4147 23.4149L3.4159 43.4139C3.04064 43.7892 2.53169 44 2.00099 44C1.47029 44 0.961335 43.7892 0.586076 43.4139C0.210818 43.0387 1.04613e-08 42.5297 0 41.999C-1.04613e-08 41.4683 0.210818 40.9593 0.586076 40.5841L19.1724 22L0.586076 3.41594C0.210818 3.04068 0 2.53171 0 2.00101C0 1.47031 0.210818 0.961345 0.586076 0.586082C0.961335 0.21082 1.47029 0 2.00099 0C2.53169 0 3.04064 0.21082 3.4159 0.586082L23.4147 20.5851C23.6006 20.7708 23.7481 20.9914 23.8488 21.2342C23.9494 21.4769 24.0012 21.7372 24.0012 22C24.0012 22.2628 23.9494 22.5231 23.8488 22.7658C23.7481 23.0086 23.6006 23.2292 23.4147 23.4149ZM43.4135 20.5851L23.4147 0.586082C23.0394 0.21082 22.5305 0 21.9998 0C21.4691 0 20.9601 0.21082 20.5849 0.586082C20.2096 0.961345 19.9988 1.47031 19.9988 2.00101C19.9988 2.53171 20.2096 3.04068 20.5849 3.41594L39.1712 22L20.5849 40.5841C20.2096 40.9593 19.9988 41.4683 19.9988 41.999C19.9988 42.5297 20.2096 43.0387 20.5849 43.4139C20.9601 43.7892 21.4691 44 21.9998 44C22.5305 44 23.0394 43.7892 23.4147 43.4139L43.4135 23.4149C43.5994 23.2292 43.7469 23.0086 43.8476 22.7658C43.9482 22.5231 44 22.2628 44 22C44 21.7372 43.9482 21.4769 43.8476 21.2342C43.7469 20.9914 43.5994 20.7708 43.4135 20.5851Z" fill="url(#paint0_linear_130_31)"/>
<defs>
<linearGradient id="paint0_linear_130_31" x1="0" y1="22" x2="44" y2="22" gradientUnits="userSpaceOnUse">
<stop stop-color="#F8A0CC"/>
<stop offset="1" stop-color="#D296FF"/>
</linearGradient>
</defs>
</svg>
