<svg width="39" height="43" viewBox="0 0 39 43" fill="none" xmlns="http://www.w3.org/2000/svg">
<path d="M14.625 0.0625H24.375C25.651 0.0625 26.8747 0.578489 27.7773 1.49707C28.68 2.41574 29.1875 3.66226 29.1875 4.96191V6.67773H37.375C37.789 6.67773 38.1864 6.84524 38.4795 7.14355C38.7726 7.44191 38.9375 7.84713 38.9375 8.26953C38.9374 8.69174 38.7725 9.09627 38.4795 9.39453C38.1864 9.69285 37.789 9.86035 37.375 9.86035H35.6875V39.6924C35.6875 40.5533 35.3516 41.3788 34.7539 41.9873C34.156 42.5958 33.345 42.9375 32.5 42.9375H6.5C5.65498 42.9375 4.84395 42.5958 4.24609 41.9873C3.64836 41.3788 3.31252 40.5533 3.3125 39.6924V9.86035H1.625C1.21096 9.86035 0.813622 9.69285 0.520508 9.39453C0.227541 9.09627 0.0625781 8.69174 0.0625 8.26953C0.0625 7.84713 0.227357 7.44191 0.520508 7.14355C0.813621 6.84524 1.21096 6.67773 1.625 6.67773H9.8125V4.96191C9.8125 3.66226 10.32 2.41574 11.2227 1.49707C12.1253 0.578489 13.349 0.0625 14.625 0.0625ZM6.4375 39.7549H32.5625V9.86035H6.4375V39.7549ZM14.625 16.6006C15.039 16.6006 15.4364 16.7682 15.7295 17.0664C16.0226 17.3648 16.1875 17.77 16.1875 18.1924V31.4229C16.1875 31.8453 16.0226 32.2505 15.7295 32.5488C15.4364 32.8471 15.039 33.0146 14.625 33.0146C14.211 33.0146 13.8136 32.8471 13.5205 32.5488C13.2274 32.2505 13.0625 31.8453 13.0625 31.4229V18.1924C13.0625 17.77 13.2274 17.3648 13.5205 17.0664C13.8136 16.7682 14.211 16.6006 14.625 16.6006ZM24.375 16.6006C24.789 16.6006 25.1864 16.7682 25.4795 17.0664C25.7726 17.3648 25.9375 17.77 25.9375 18.1924V31.4229C25.9375 31.8453 25.7726 32.2505 25.4795 32.5488C25.1864 32.8471 24.789 33.0146 24.375 33.0146C23.961 33.0146 23.5636 32.8471 23.2705 32.5488C22.9774 32.2505 22.8125 31.8453 22.8125 31.4229V18.1924C22.8125 17.77 22.9774 17.3648 23.2705 17.0664C23.5636 16.7682 23.961 16.6006 24.375 16.6006ZM14.625 3.24512C14.1772 3.24512 13.748 3.42621 13.4316 3.74805C13.1153 4.07001 12.9375 4.50706 12.9375 4.96191V6.67773H26.0625V4.96191C26.0625 4.50706 25.8847 4.07001 25.5684 3.74805C25.252 3.42621 24.8228 3.24512 24.375 3.24512H14.625Z" fill="#2C2127" stroke="white" stroke-width="0.125"/>
</svg>
