<svg width="39" height="39" viewBox="0 0 39 39" fill="none" xmlns="http://www.w3.org/2000/svg">
<path d="M27.167 0.0625C27.5684 0.0625308 27.966 0.141313 28.3369 0.294922C28.7079 0.448601 29.0452 0.674062 29.3291 0.958008L38.042 9.67285C38.3258 9.95665 38.5514 10.2933 38.7051 10.6641C38.8588 11.035 38.9375 11.4334 38.9375 11.835C38.9375 12.2364 38.8587 12.634 38.7051 13.0049C38.5514 13.3759 38.326 13.7132 38.042 13.9971L13.9961 38.041C13.7133 38.3261 13.3759 38.5522 13.0049 38.7061C12.634 38.8598 12.2364 38.9388 11.835 38.9375H3.12012C2.30921 38.9375 1.53141 38.6154 0.958008 38.042C0.384623 37.4686 0.0625 36.6907 0.0625 35.8799V27.166C0.061217 26.7644 0.140114 26.3661 0.293945 25.9951C0.409315 25.717 0.564848 25.4579 0.755859 25.2266L0.958984 25.0049L25.0049 0.958008C25.2887 0.674233 25.6253 0.448557 25.9961 0.294922C26.3671 0.14123 26.7654 0.0625 27.167 0.0625ZM3.05762 35.9424H8.86523L3.05762 30.1348V35.9424ZM9.18164 31.9365L9.13672 31.9805L9.18164 32.0244L12.4355 35.2793L12.4805 35.3232L29.083 18.7207L25.7402 15.3779L9.18164 31.9365ZM3.72168 26.4766L3.67676 26.5205L3.72168 26.5645L6.97559 29.8174L7.02051 29.8613L7.06445 29.8174L23.5791 13.3047L23.623 13.2607L20.2803 9.91797L3.72168 26.4766ZM27.1221 3.07715L22.4414 7.75684L22.3975 7.80078L22.4414 7.8457L31.1562 16.5596L31.2002 16.6035L31.2441 16.5596L35.9248 11.8779L35.9688 11.834L35.9248 11.7891L27.21 3.07715L27.166 3.0332L27.1221 3.07715Z" fill="#2C2127" stroke="white" stroke-width="0.125"/>
</svg>
