<svg width="40" height="40" viewBox="0 0 40 40" fill="none" xmlns="http://www.w3.org/2000/svg">
<path d="M20 0C16.0444 0 12.1776 1.17298 8.8886 3.37061C5.59962 5.56823 3.03617 8.69181 1.52242 12.3463C0.00866569 16.0008 -0.387401 20.0222 0.384303 23.9018C1.15601 27.7814 3.06082 31.3451 5.85787 34.1421C8.65492 36.9392 12.2186 38.844 16.0982 39.6157C19.9778 40.3874 23.9991 39.9913 27.6537 38.4776C31.3082 36.9638 34.4318 34.4004 36.6294 31.1114C38.827 27.8224 40 23.9556 40 20C39.9944 14.6974 37.8855 9.61356 34.136 5.86405C30.3864 2.11453 25.3026 0.00559965 20 0ZM20 36.9231C16.6529 36.9231 13.381 35.9305 10.598 34.071C7.81506 32.2115 5.64599 29.5685 4.36512 26.4762C3.08426 23.3839 2.74912 19.9812 3.4021 16.6985C4.05508 13.4157 5.66685 10.4003 8.03358 8.03358C10.4003 5.66684 13.4157 4.05508 16.6985 3.40209C19.9812 2.74911 23.3839 3.08425 26.4762 4.36511C29.5685 5.64598 32.2115 7.81505 34.071 10.598C35.9306 13.381 36.9231 16.6529 36.9231 20C36.918 24.4867 35.1334 28.7882 31.9608 31.9608C28.7882 35.1334 24.4867 36.918 20 36.9231ZM18.4615 21.5385V10.7692C18.4615 10.3612 18.6236 9.96989 18.9121 9.68137C19.2007 9.39285 19.592 9.23077 20 9.23077C20.408 9.23077 20.7993 9.39285 21.0879 9.68137C21.3764 9.96989 21.5385 10.3612 21.5385 10.7692V21.5385C21.5385 21.9465 21.3764 22.3378 21.0879 22.6263C20.7993 22.9148 20.408 23.0769 20 23.0769C19.592 23.0769 19.2007 22.9148 18.9121 22.6263C18.6236 22.3378 18.4615 21.9465 18.4615 21.5385ZM22.3077 28.4615C22.3077 28.918 22.1724 29.3641 21.9188 29.7436C21.6652 30.1231 21.3048 30.4189 20.8831 30.5936C20.4614 30.7682 19.9974 30.8139 19.5498 30.7249C19.1021 30.6358 18.691 30.4161 18.3682 30.0933C18.0455 29.7706 17.8257 29.3594 17.7367 28.9117C17.6476 28.4641 17.6933 28.0001 17.868 27.5784C18.0426 27.1567 18.3384 26.7963 18.7179 26.5428C19.0974 26.2892 19.5436 26.1538 20 26.1538C20.612 26.1538 21.199 26.397 21.6318 26.8297C22.0646 27.2625 22.3077 27.8495 22.3077 28.4615Z" fill="url(#paint0_linear_312_8)"/>
<defs>
<linearGradient id="paint0_linear_312_8" x1="0" y1="20" x2="40" y2="20" gradientUnits="userSpaceOnUse">
<stop stop-color="#F8B7D9"/>
<stop offset="1" stop-color="#D296FF"/>
</linearGradient>
</defs>
</svg>
