<svg width="73" height="62" viewBox="0 0 73 62" fill="none" xmlns="http://www.w3.org/2000/svg">
<path d="M5.61523 0.0625H67.3848C68.8573 0.0625406 70.2692 0.650107 71.3105 1.69531C72.3519 2.7406 72.9375 4.15836 72.9375 5.63672V56.3633C72.9375 57.8416 72.3519 59.2594 71.3105 60.3047C70.2692 61.3499 68.8573 61.9375 67.3848 61.9375H5.61523C4.14268 61.9375 2.7308 61.3499 1.68945 60.3047C0.648059 59.2594 0.0625 57.8416 0.0625 56.3633V5.63672C0.0625 4.15836 0.648059 2.7406 1.68945 1.69531C2.7308 0.650109 4.14268 0.0625398 5.61523 0.0625ZM23.8213 28.1377L5.57129 46.4561L5.55273 46.4746V56.4258H52.0928L51.9863 56.3193L23.9092 28.1377L23.8652 28.0938L23.8213 28.1377ZM5.55273 38.6797L5.65918 38.5723L19.9365 24.2422C20.9778 23.1977 22.3903 22.6104 23.8623 22.6104C25.3342 22.6105 26.7459 23.1978 27.7871 24.2422L43.2295 39.7422L43.2734 39.7861L43.3174 39.7422L50.3369 32.6963C50.8526 32.1786 51.4649 31.7675 52.1387 31.4873C52.8123 31.2072 53.5345 31.0635 54.2637 31.0635C54.9928 31.0635 55.7151 31.2073 56.3887 31.4873C57.0624 31.7675 57.6748 32.1787 58.1904 32.6963L67.3408 41.877L67.4473 41.9834V5.57422H5.55273V38.6797ZM44.7393 17.2891C45.4974 16.9739 46.3319 16.8911 47.1367 17.0518C47.9413 17.2125 48.6806 17.6091 49.2607 18.1914C49.841 18.7738 50.2364 19.5163 50.3965 20.3242C50.5565 21.132 50.4742 21.9696 50.1602 22.7305C49.8461 23.4914 49.3141 24.142 48.6318 24.5996C47.9496 25.0571 47.1475 25.3007 46.3271 25.3008C45.2268 25.3008 44.1717 24.8621 43.3936 24.0811C42.6155 23.3001 42.1778 22.2412 42.1777 21.1367C42.1777 20.313 42.421 19.5072 42.877 18.8223C43.3329 18.1374 43.9812 17.6043 44.7393 17.2891ZM67.4473 49.7783L67.4287 49.7598L54.3135 36.5918L54.2695 36.5479L54.2246 36.5918L47.2061 43.6377L47.1621 43.6816L47.2061 43.7256L59.8398 56.4082L59.8584 56.4258H67.4473V49.7783Z" fill="url(#paint0_linear_86_268)" stroke="url(#paint1_linear_86_268)" stroke-width="0.125"/>
<defs>
<linearGradient id="paint0_linear_86_268" x1="0" y1="31" x2="73" y2="31" gradientUnits="userSpaceOnUse">
<stop stop-color="#F8B7D9"/>
<stop offset="1" stop-color="#D296FF"/>
</linearGradient>
<linearGradient id="paint1_linear_86_268" x1="0" y1="31" x2="73" y2="31" gradientUnits="userSpaceOnUse">
<stop stop-color="#F8B7D9"/>
<stop offset="1" stop-color="#D296FF"/>
</linearGradient>
</defs>
</svg>
