<svg width="33" height="24" viewBox="0 0 33 24" fill="none" xmlns="http://www.w3.org/2000/svg">
<path d="M31.8214 8.4C32.134 8.4 32.4338 8.27357 32.6548 8.04853C32.8758 7.82348 33 7.51826 33 7.2V2.4C33 1.76348 32.7517 1.15303 32.3096 0.702944C31.8676 0.252856 31.268 0 30.6429 0H2.35714C1.73199 0 1.13244 0.252856 0.690391 0.702944C0.248341 1.15303 0 1.76348 0 2.4V7.2C0 7.51826 0.124171 7.82348 0.345196 8.04853C0.566221 8.27357 0.865995 8.4 1.17857 8.4C2.1163 8.4 3.01562 8.77928 3.6787 9.45442C4.34177 10.1295 4.71429 11.0452 4.71429 12C4.71429 12.9548 4.34177 13.8705 3.6787 14.5456C3.01562 15.2207 2.1163 15.6 1.17857 15.6C0.865995 15.6 0.566221 15.7264 0.345196 15.9515C0.124171 16.1765 0 16.4817 0 16.8V21.6C0 22.2365 0.248341 22.847 0.690391 23.2971C1.13244 23.7471 1.73199 24 2.35714 24H30.6429C31.268 24 31.8676 23.7471 32.3096 23.2971C32.7517 22.847 33 22.2365 33 21.6V16.8C33 16.4817 32.8758 16.1765 32.6548 15.9515C32.4338 15.7264 32.134 15.6 31.8214 15.6C30.8837 15.6 29.9844 15.2207 29.3213 14.5456C28.6582 13.8705 28.2857 12.9548 28.2857 12C28.2857 11.0452 28.6582 10.1295 29.3213 9.45442C29.9844 8.77928 30.8837 8.4 31.8214 8.4ZM2.35714 17.88C3.68927 17.6046 4.88692 16.8687 5.74716 15.7971C6.6074 14.7255 7.07734 13.384 7.07734 12C7.07734 10.616 6.6074 9.27451 5.74716 8.20289C4.88692 7.13128 3.68927 6.39542 2.35714 6.12V2.4H10.6071V21.6H2.35714V17.88ZM30.6429 17.88V21.6H12.9643V2.4H30.6429V6.12C29.3107 6.39542 28.1131 7.13128 27.2528 8.20289C26.3926 9.27451 25.9227 10.616 25.9227 12C25.9227 13.384 26.3926 14.7255 27.2528 15.7971C28.1131 16.8687 29.3107 17.6046 30.6429 17.88Z" fill="white"/>
</svg>
