<svg width="40" height="40" viewBox="0 0 40 40" fill="none" xmlns="http://www.w3.org/2000/svg">
<path d="M3.33301 0.0625H36.667C37.5344 0.0625869 38.3662 0.407185 38.9795 1.02051C39.5928 1.63383 39.9374 2.46565 39.9375 3.33301V36.667C39.9374 37.5344 39.5928 38.3662 38.9795 38.9795C38.3662 39.5928 37.5344 39.9374 36.667 39.9375H3.33301C2.46565 39.9374 1.63383 39.5928 1.02051 38.9795C0.407185 38.3662 0.0625869 37.5344 0.0625 36.667V3.33301C0.0625862 2.46565 0.407184 1.63383 1.02051 1.02051C1.63383 0.407184 2.46565 0.0625862 3.33301 0.0625ZM3.27051 36.7295H36.7295V3.27051H3.27051V36.7295ZM20 10.0625C20.4255 10.0625 20.8339 10.2314 21.1348 10.5322C21.4355 10.8331 21.6045 11.2416 21.6045 11.667V18.3955H28.333C28.7584 18.3955 29.167 18.5645 29.4678 18.8652C29.7686 19.1661 29.9375 19.5745 29.9375 20C29.9375 20.4255 29.7686 20.8339 29.4678 21.1348C29.167 21.4355 28.7584 21.6045 28.333 21.6045H21.6045V28.333C21.6045 28.7584 21.4355 29.167 21.1348 29.4678C20.8339 29.7686 20.4255 29.9375 20 29.9375C19.5745 29.9375 19.1661 29.7686 18.8652 29.4678C18.5645 29.167 18.3955 28.7584 18.3955 28.333V21.6045H11.667C11.2416 21.6045 10.8331 21.4355 10.5322 21.1348C10.2314 20.8339 10.0625 20.4255 10.0625 20C10.0625 19.5745 10.2314 19.1661 10.5322 18.8652C10.8331 18.5645 11.2416 18.3955 11.667 18.3955H18.3955V11.667C18.3955 11.2416 18.5645 10.8331 18.8652 10.5322C19.1661 10.2314 19.5745 10.0625 20 10.0625Z" fill="white" stroke="white" stroke-width="0.125"/>
</svg>
