<svg width="40" height="40" viewBox="0 0 40 40" fill="none" xmlns="http://www.w3.org/2000/svg">
<path d="M20 0C16.0444 0 12.1776 1.17298 8.8886 3.37061C5.59962 5.56823 3.03617 8.69181 1.52242 12.3463C0.00866569 16.0008 -0.387401 20.0222 0.384303 23.9018C1.15601 27.7814 3.06082 31.3451 5.85787 34.1421C8.65492 36.9392 12.2186 38.844 16.0982 39.6157C19.9778 40.3874 23.9991 39.9913 27.6537 38.4776C31.3082 36.9638 34.4318 34.4004 36.6294 31.1114C38.827 27.8224 40 23.9556 40 20C39.9944 14.6974 37.8855 9.61356 34.136 5.86405C30.3864 2.11453 25.3026 0.00559965 20 0ZM20 36.9231C16.6529 36.9231 13.381 35.9305 10.598 34.071C7.81506 32.2115 5.64599 29.5685 4.36512 26.4762C3.08426 23.3839 2.74912 19.9812 3.4021 16.6985C4.05508 13.4157 5.66685 10.4003 8.03358 8.03358C10.4003 5.66684 13.4157 4.05508 16.6985 3.40209C19.9812 2.74911 23.3839 3.08425 26.4762 4.36511C29.5685 5.64598 32.2115 7.81505 34.071 10.598C35.9306 13.381 36.9231 16.6529 36.9231 20C36.918 24.4867 35.1334 28.7882 31.9608 31.9608C28.7882 35.1334 24.4867 36.918 20 36.9231ZM32.3077 20C32.3077 20.408 32.1456 20.7993 31.8571 21.0879C31.5686 21.3764 31.1773 21.5385 30.7692 21.5385H20C19.592 21.5385 19.2007 21.3764 18.9121 21.0879C18.6236 20.7993 18.4615 20.408 18.4615 20V9.23077C18.4615 8.82274 18.6236 8.43143 18.9121 8.14291C19.2007 7.85439 19.592 7.69231 20 7.69231C20.408 7.69231 20.7993 7.85439 21.0879 8.14291C21.3764 8.43143 21.5385 8.82274 21.5385 9.23077V18.4615H30.7692C31.1773 18.4615 31.5686 18.6236 31.8571 18.9121C32.1456 19.2007 32.3077 19.592 32.3077 20Z" fill="url(#paint0_linear_115_63)"/>
<defs>
<linearGradient id="paint0_linear_115_63" x1="0" y1="20" x2="40" y2="20" gradientUnits="userSpaceOnUse">
<stop stop-color="#F8B7D9"/>
</linearGradient>
</defs>
</svg>
